<svg width="250" height="223" viewBox="0 0 250 223" fill="none" xmlns="http://www.w3.org/2000/svg">
<path d="M214.032 53.5632H35.7433C20.9734 53.5632 9 65.5365 9 80.3064V187.28C9 202.049 20.9734 214.023 35.7433 214.023H214.032C228.802 214.023 240.775 202.049 240.775 187.28V80.3064C240.775 65.5365 228.802 53.5632 214.032 53.5632Z" stroke="#2569A9" stroke-width="17.8289" stroke-linejoin="round"/>
<path d="M211.447 53.5632V36.8486C211.445 32.7491 210.539 28.7005 208.793 24.9915C207.047 21.2825 204.504 18.0046 201.345 15.3917C198.186 12.7788 194.489 10.8953 190.518 9.8756C186.548 8.85587 182.401 8.72505 178.374 9.49247L31.6426 34.5364C25.2706 35.7507 19.5221 39.1506 15.3886 44.1498C11.255 49.1489 8.99561 55.4337 9.00001 61.9204V89.2209" stroke="#2569A9" stroke-width="17.8289" stroke-linejoin="round"/>
<path d="M187.289 151.622C183.762 151.622 180.315 150.576 177.383 148.617C174.451 146.658 172.166 143.874 170.817 140.616C169.467 137.358 169.114 133.773 169.802 130.315C170.49 126.856 172.188 123.679 174.682 121.186C177.175 118.693 180.352 116.995 183.81 116.307C187.269 115.619 190.854 115.972 194.111 117.321C197.369 118.671 200.154 120.956 202.113 123.888C204.072 126.82 205.117 130.267 205.117 133.793C205.117 138.521 203.239 143.056 199.895 146.4C196.552 149.743 192.017 151.622 187.289 151.622Z" fill="#2569A9"/>
</svg>
